<svg xmlns="http://www.w3.org/2000/svg" viewBox="0 -960 960 960"><path d="M80-200q-17 0-28.5-11.5T40-240v-520q0-17 11.5-28.5T80-800t28.5 11.5T120-760v360h320v-240q0-33 23.5-56.5T520-720h240q66 0 113 47t47 113v320q0 17-11.5 28.5T880-200t-28.5-11.5T840-240v-80H120v80q0 17-11.5 28.5T80-200m200-240q-50 0-85-35t-35-85 35-85 85-35 85 35 35 85-35 85-85 35m240 40h320v-160q0-33-23.5-56.5T760-640H520zM280-520q17 0 28.5-11.5T320-560t-11.5-28.5T280-600t-28.5 11.5T240-560t11.5 28.5T280-520m240-120v240z"/></svg>