<svg xmlns="http://www.w3.org/2000/svg" viewBox="0 -960 960 960"><path d="M880-420v280q0 25-17.5 42.5T820-80H540q-25 0-42.5-17.5T480-140v-280q0-25 17.5-42.5T540-480h280q25 0 42.5 17.5T880-420M560-160h240v-240zm-80-600q-117 0-198.5 81.5T200-480q0 72 32.5 132t87.5 98v-70q0-17 11.5-28.5T360-360t28.5 11.5T400-320v160q0 17-11.5 28.5T360-120H200q-17 0-28.5-11.5T160-160t11.5-28.5T200-200h54q-62-50-98-122.5T120-480q0-75 28.5-140.5t77-114 114-77T480-840q113 0 203.5 63T814-615q6 16 0 31t-22 21-31.5 0-21.5-22q-31-78-100.5-126.5T480-760"/></svg>