<svg xmlns="http://www.w3.org/2000/svg" viewBox="0 -960 960 960"><path d="M40-480q0-91 34.5-171T169-791t140-94.5T480-920q58 0 111 14t101 40q23-5 48-8t53-5q20-1 33.5 13t12.5 34q-1 23-3 44.5t-6 41.5q42 56 66 123.5T920-480q0 91-34.5 171T791-169 651-74.5 480-40 309-74.5 169-169 74.5-309 40-480m241 0q0 15 5 30t14 28l100 140 100-140q9-13 14-28t5-30q0-16-5-30.5T500-538L400-679 300-538q-9 13-14 28t-5 30m-161 0q0 150 105 255t255 105 255-105 105-255q0-45-11-87t-31-80q-8 14-16.5 26T762-598q-14 14-29.5 24.5T698-555q29 25 45.5 59.5T760-420q0 75-52 127.5T581-240q-26 0-49.5-7T488-266l-24 33q-11 15-28 24t-36 9-35.5-9-27.5-24L235-376q-17-23-25-49.5t-8-54.5 8-55 25-50l102-143q11-15 27.5-23.5T400-760t36 8.5 28 23.5l33 47q8-29 20-55t31-48q9-11 19.5-21t22.5-18q-26-8-53.5-12.5T480-840q-150 0-255 105T120-480m446 104-32 45q11 5 22 8t24 3q42 0 71-29t29-71q0-38-24.5-65.5T595-518q2 10 3 19t1 19q0 28-8 54.5T566-376m195-422q-47 5-82 18t-59 37-38.5 59-19.5 85q48-5 83-18.5t59-37.5 38-59.5 19-83.5M359-384q-9-9-9-21.5t9-21.5l27-27-35-28q-11-8-11-21.5t9-22.5l50-50q9-9 21-9t21 9 9 21-9 21l-27 27 35 29q11 8 11 21.5t-9 22.5l-50 50q-9 9-21 9t-21-9"/></svg>